STARTFONT 2.1
COMMENT ======================================================================
COMMENT  This is the Goha WP font hacked for Linux consoles by Daniel Yacob for
COMMENT  GohaClassic-12.psf.
COMMENT
COMMENT  Yitna Firdiywek of GohaTibeb Associates has placed the Goha WP package
COMMENT  and these fonts into the publice domain under the GNU General Public
COMMENT  License vs 2.0 :-  ybf2u@virginia.edu
COMMENT
COMMENT  Available at:  ftp://ftp.cs.indiana.edu/pub/fidel/fonts/linux/
COMMENT ======================================================================
FONT -Goha-ClassicFixed-Medium-R-Normal--12-150-100-100-M-120-Ethiopic-Unicode
SIZE 12 100 100
FONTBOUNDINGBOX 8 12 0 -2
STARTPROPERTIES 4
COPYRIGHT "GNU GPL 2.0"
DEFAULT_CHAR 318
FONT_ASCENT 6
FONT_DESCENT 2
ENDPROPERTIES
CHARS 353
STARTCHAR 0000
ENCODING 0
SWIDTH 903 0
DWIDTH 8 0
BBX 8 12 0 -2
BITMAP
82
82
82
82
82
82
82
82
82
82
7c
00
ENDCHAR
STARTCHAR 0001
ENCODING 1
SWIDTH 903 0
DWIDTH 8 0
BBX 8 12 0 -2
BITMAP
84
84
84
84
87
84
84
84
84
84
78
00
ENDCHAR
STARTCHAR 0002
ENCODING 2
SWIDTH 903 0
DWIDTH 8 0
BBX 8 12 0 -2
BITMAP
88
88
88
88
78
08
08
08
08
08
0f
00
ENDCHAR
STARTCHAR 0003
ENCODING 3
SWIDTH 903 0
DWIDTH 8 0
BBX 8 12 0 -2
BITMAP
84
84
84
84
7c
04
04
04
04
04
04
00
ENDCHAR
STARTCHAR 0004
ENCODING 4
SWIDTH 903 0
DWIDTH 8 0
BBX 8 12 0 -2
BITMAP
88
88
88
88
78
08
08
08
0e
09
0e
00
ENDCHAR
STARTCHAR 0005
ENCODING 5
SWIDTH 903 0
DWIDTH 8 0
BBX 8 12 0 -2
BITMAP
41
41
41
41
61
21
21
21
21
21
1e
00
ENDCHAR
STARTCHAR 0006
ENCODING 6
SWIDTH 903 0
DWIDTH 8 0
BBX 8 12 0 -2
BITMAP
86
85
86
84
84
84
84
84
84
84
78
00
ENDCHAR
STARTCHAR 0007
ENCODING 7
SWIDTH 903 0
DWIDTH 8 0
BBX 8 12 0 -2
BITMAP
08
10
20
50
88
84
84
84
84
84
84
00
ENDCHAR
STARTCHAR 0008
ENCODING 8
SWIDTH 903 0
DWIDTH 8 0
BBX 8 12 0 -2
BITMAP
00
08
10
20
50
88
87
84
84
84
84
00
ENDCHAR
STARTCHAR 0009
ENCODING 9
SWIDTH 903 0
DWIDTH 8 0
BBX 8 12 0 -2
BITMAP
08
10
20
50
88
84
84
84
84
84
87
00
ENDCHAR
STARTCHAR 000a
ENCODING 10
SWIDTH 903 0
DWIDTH 8 0
BBX 8 12 0 -2
BITMAP
08
10
20
50
88
84
84
84
04
04
04
00
ENDCHAR
STARTCHAR 000b
ENCODING 11
SWIDTH 903 0
DWIDTH 8 0
BBX 8 12 0 -2
BITMAP
08
10
20
50
88
84
84
84
86
85
86
00
ENDCHAR
STARTCHAR 000c
ENCODING 12
SWIDTH 903 0
DWIDTH 8 0
BBX 8 12 0 -2
BITMAP
04
08
10
20
50
88
84
84
c4
a4
c4
00
ENDCHAR
STARTCHAR 000d
ENCODING 13
SWIDTH 903 0
DWIDTH 8 0
BBX 8 12 0 -2
BITMAP
08
10
20
50
8a
85
86
84
84
84
84
00
ENDCHAR
STARTCHAR 000e
ENCODING 14
SWIDTH 903 0
DWIDTH 8 0
BBX 8 12 0 -2
BITMAP
08
10
20
50
88
84
84
04
04
1f
11
00
ENDCHAR
STARTCHAR 000f
ENCODING 15
SWIDTH 903 0
DWIDTH 8 0
BBX 8 12 0 -2
BITMAP
10
10
10
7c
92
92
92
92
92
92
92
00
ENDCHAR
STARTCHAR 0010
ENCODING 16
SWIDTH 903 0
DWIDTH 8 0
BBX 8 12 0 -2
BITMAP
20
20
20
70
a8
a8
ae
a8
a8
a8
a8
00
ENDCHAR
STARTCHAR 0011
ENCODING 17
SWIDTH 903 0
DWIDTH 8 0
BBX 8 12 0 -2
BITMAP
20
20
20
70
a8
a8
a8
a8
a8
a8
ae
00
ENDCHAR
STARTCHAR 0012
ENCODING 18
SWIDTH 903 0
DWIDTH 8 0
BBX 8 12 0 -2
BITMAP
10
10
10
7c
92
92
92
92
02
02
02
00
ENDCHAR
STARTCHAR 0013
ENCODING 19
SWIDTH 903 0
DWIDTH 8 0
BBX 8 12 0 -2
BITMAP
20
20
20
70
a8
a8
a8
a8
ac
aa
ac
00
ENDCHAR
STARTCHAR 0014
ENCODING 20
SWIDTH 903 0
DWIDTH 8 0
BBX 8 12 0 -2
BITMAP
40
20
10
10
7c
92
92
92
92
92
92
00
ENDCHAR
STARTCHAR 0015
ENCODING 21
SWIDTH 903 0
DWIDTH 8 0
BBX 8 12 0 -2
BITMAP
10
10
10
7c
92
92
92
92
80
80
80
00
ENDCHAR
STARTCHAR 0016
ENCODING 22
SWIDTH 903 0
DWIDTH 8 0
BBX 8 12 0 -2
BITMAP
10
10
10
7c
92
92
92
02
04
1f
11
00
ENDCHAR
STARTCHAR 0017
ENCODING 23
SWIDTH 903 0
DWIDTH 8 0
BBX 8 12 0 -2
BITMAP
00
00
7e
a5
a5
a5
a5
a5
a5
a5
66
00
ENDCHAR
STARTCHAR 0018
ENCODING 24
SWIDTH 903 0
DWIDTH 8 0
BBX 8 12 0 -2
BITMAP
00
00
00
7c
aa
aa
ab
aa
aa
aa
6c
00
ENDCHAR
STARTCHAR 0019
ENCODING 25
SWIDTH 903 0
DWIDTH 8 0
BBX 8 12 0 -2
BITMAP
7e
a5
a5
a5
43
01
02
02
04
04
07
00
ENDCHAR
STARTCHAR 001a
ENCODING 26
SWIDTH 903 0
DWIDTH 8 0
BBX 8 12 0 -2
BITMAP
7e
a5
a5
a5
43
01
01
01
01
01
01
00
ENDCHAR
STARTCHAR 001b
ENCODING 27
SWIDTH 903 0
DWIDTH 8 0
BBX 8 12 0 -2
BITMAP
7e
a5
a5
a5
43
02
04
04
06
05
06
00
ENDCHAR
STARTCHAR 001c
ENCODING 28
SWIDTH 903 0
DWIDTH 8 0
BBX 8 12 0 -2
BITMAP
7e
a5
a5
a5
62
20
20
40
80
80
80
00
ENDCHAR
STARTCHAR 001d
ENCODING 29
SWIDTH 903 0
DWIDTH 8 0
BBX 8 12 0 -2
BITMAP
7e
a5
a5
a5
62
20
20
20
20
20
20
00
ENDCHAR
STARTCHAR 001e
ENCODING 30
SWIDTH 903 0
DWIDTH 8 0
BBX 8 12 0 -2
BITMAP
7e
a5
a5
a5
43
02
04
04
04
1f
11
00
ENDCHAR
STARTCHAR 001f
ENCODING 31
SWIDTH 903 0
DWIDTH 8 0
BBX 8 12 0 -2
BITMAP
00
00
92
92
92
92
92
92
92
92
7c
00
ENDCHAR
STARTCHAR 0020
ENCODING 32
SWIDTH 903 0
DWIDTH 8 0
BBX 8 12 0 -2
BITMAP
00
00
a8
a8
a8
a8
ae
a8
a8
a8
70
00
ENDCHAR
STARTCHAR 0021
ENCODING 33
SWIDTH 903 0
DWIDTH 8 0
BBX 8 12 0 -2
BITMAP
00
92
92
92
92
7e
02
02
04
08
08
0e
ENDCHAR
STARTCHAR 0022
ENCODING 34
SWIDTH 903 0
DWIDTH 8 0
BBX 8 12 0 -2
BITMAP
a8
a8
a8
a8
a8
78
08
08
08
08
08
00
ENDCHAR
STARTCHAR 0023
ENCODING 35
SWIDTH 903 0
DWIDTH 8 0
BBX 8 12 0 -2
BITMAP
00
92
92
92
92
7e
02
02
04
0c
0a
0c
ENDCHAR
STARTCHAR 0024
ENCODING 36
SWIDTH 903 0
DWIDTH 8 0
BBX 8 12 0 -2
BITMAP
2a
2a
2a
2a
2a
3c
60
40
40
40
40
00
ENDCHAR
STARTCHAR 0025
ENCODING 37
SWIDTH 903 0
DWIDTH 8 0
BBX 8 12 0 -2
BITMAP
92
92
92
92
7c
10
20
20
40
40
40
00
ENDCHAR
STARTCHAR 0026
ENCODING 38
SWIDTH 903 0
DWIDTH 8 0
BBX 8 12 0 -2
BITMAP
a8
a8
a8
a8
a8
78
08
08
08
08
3e
22
ENDCHAR
STARTCHAR 0027
ENCODING 39
SWIDTH 903 0
DWIDTH 8 0
BBX 8 12 0 -2
BITMAP
20
20
20
20
20
20
40
80
80
80
7e
00
ENDCHAR
STARTCHAR 0028
ENCODING 40
SWIDTH 903 0
DWIDTH 8 0
BBX 8 12 0 -2
BITMAP
20
20
20
20
40
80
80
7e
10
10
10
00
ENDCHAR
STARTCHAR 0029
ENCODING 41
SWIDTH 903 0
DWIDTH 8 0
BBX 8 12 0 -2
BITMAP
20
20
20
20
40
40
80
88
84
84
78
00
ENDCHAR
STARTCHAR 002a
ENCODING 42
SWIDTH 903 0
DWIDTH 8 0
BBX 8 12 0 -2
BITMAP
20
20
20
20
20
20
40
80
98
a4
63
00
ENDCHAR
STARTCHAR 002b
ENCODING 43
SWIDTH 903 0
DWIDTH 8 0
BBX 8 12 0 -2
BITMAP
20
20
20
20
40
80
80
80
7c
0a
04
00
ENDCHAR
STARTCHAR 002c
ENCODING 44
SWIDTH 903 0
DWIDTH 8 0
BBX 8 12 0 -2
BITMAP
78
80
80
80
80
80
80
80
80
80
7e
00
ENDCHAR
STARTCHAR 002d
ENCODING 45
SWIDTH 903 0
DWIDTH 8 0
BBX 8 12 0 -2
BITMAP
7c
8a
84
80
80
80
80
80
80
80
7e
00
ENDCHAR
STARTCHAR 002e
ENCODING 46
SWIDTH 903 0
DWIDTH 8 0
BBX 8 12 0 -2
BITMAP
44
7c
10
10
10
10
20
40
40
40
3e
00
ENDCHAR
STARTCHAR 002f
ENCODING 47
SWIDTH 903 0
DWIDTH 8 0
BBX 8 12 0 -2
BITMAP
10
10
10
7c
82
82
82
82
82
82
82
00
ENDCHAR
STARTCHAR 0030
ENCODING 48
SWIDTH 903 0
DWIDTH 8 0
BBX 8 12 0 -2
BITMAP
20
20
70
88
88
88
8f
88
88
88
88
00
ENDCHAR
STARTCHAR 0031
ENCODING 49
SWIDTH 903 0
DWIDTH 8 0
BBX 8 12 0 -2
BITMAP
20
20
70
88
88
88
88
88
88
88
8f
00
ENDCHAR
STARTCHAR 0032
ENCODING 50
SWIDTH 903 0
DWIDTH 8 0
BBX 8 12 0 -2
BITMAP
10
10
7c
82
82
82
82
02
02
02
02
00
ENDCHAR
STARTCHAR 0033
ENCODING 51
SWIDTH 903 0
DWIDTH 8 0
BBX 8 12 0 -2
BITMAP
20
20
20
70
88
88
88
88
8e
89
8e
00
ENDCHAR
STARTCHAR 0034
ENCODING 52
SWIDTH 903 0
DWIDTH 8 0
BBX 8 12 0 -2
BITMAP
40
20
10
7c
82
82
82
82
82
82
82
00
ENDCHAR
STARTCHAR 0035
ENCODING 53
SWIDTH 903 0
DWIDTH 8 0
BBX 8 12 0 -2
BITMAP
10
10
7c
82
82
82
82
82
80
80
80
00
ENDCHAR
STARTCHAR 0036
ENCODING 54
SWIDTH 903 0
DWIDTH 8 0
BBX 8 12 0 -2
BITMAP
10
10
38
44
44
44
44
04
04
1f
11
00
ENDCHAR
STARTCHAR 0037
ENCODING 55
SWIDTH 903 0
DWIDTH 8 0
BBX 8 12 0 -2
BITMAP
fe
10
10
10
7c
82
82
82
82
82
82
00
ENDCHAR
STARTCHAR 0038
ENCODING 56
SWIDTH 903 0
DWIDTH 8 0
BBX 8 12 0 -2
BITMAP
f8
20
20
70
88
88
8f
88
88
88
88
00
ENDCHAR
STARTCHAR 0039
ENCODING 57
SWIDTH 903 0
DWIDTH 8 0
BBX 8 12 0 -2
BITMAP
f8
20
20
70
88
88
88
88
88
88
8f
00
ENDCHAR
STARTCHAR 003a
ENCODING 58
SWIDTH 903 0
DWIDTH 8 0
BBX 8 12 0 -2
BITMAP
fe
10
10
7c
82
82
82
82
02
02
02
00
ENDCHAR
STARTCHAR 003b
ENCODING 59
SWIDTH 903 0
DWIDTH 8 0
BBX 8 12 0 -2
BITMAP
f8
20
20
70
88
88
88
88
8e
89
8e
00
ENDCHAR
STARTCHAR 003c
ENCODING 60
SWIDTH 903 0
DWIDTH 8 0
BBX 8 12 0 -2
BITMAP
fc
20
10
08
3e
41
41
41
41
41
41
00
ENDCHAR
STARTCHAR 003d
ENCODING 61
SWIDTH 903 0
DWIDTH 8 0
BBX 8 12 0 -2
BITMAP
fe
10
10
7c
82
82
82
82
80
80
80
00
ENDCHAR
STARTCHAR 003e
ENCODING 62
SWIDTH 903 0
DWIDTH 8 0
BBX 8 12 0 -2
BITMAP
7c
10
10
38
44
44
44
44
04
1f
11
00
ENDCHAR
STARTCHAR 003f
ENCODING 63
SWIDTH 903 0
DWIDTH 8 0
BBX 8 12 0 -2
BITMAP
10
10
10
7c
92
92
7c
10
10
10
10
00
ENDCHAR
STARTCHAR 0040
ENCODING 64
SWIDTH 903 0
DWIDTH 8 0
BBX 8 12 0 -2
BITMAP
10
10
10
7c
92
92
7c
10
1e
10
10
00
ENDCHAR
STARTCHAR 0041
ENCODING 65
SWIDTH 903 0
DWIDTH 8 0
BBX 8 12 0 -2
BITMAP
10
10
10
7c
92
92
7c
10
10
10
1e
00
ENDCHAR
STARTCHAR 0042
ENCODING 66
SWIDTH 903 0
DWIDTH 8 0
BBX 8 12 0 -2
BITMAP
10
10
7c
92
92
7c
10
10
20
40
80
00
ENDCHAR
STARTCHAR 0043
ENCODING 67
SWIDTH 903 0
DWIDTH 8 0
BBX 8 12 0 -2
BITMAP
10
10
10
7c
92
92
7c
10
1c
12
1c
00
ENDCHAR
STARTCHAR 0044
ENCODING 68
SWIDTH 903 0
DWIDTH 8 0
BBX 8 12 0 -2
BITMAP
40
40
30
10
7c
92
92
7c
10
10
10
00
ENDCHAR
STARTCHAR 0045
ENCODING 69
SWIDTH 903 0
DWIDTH 8 0
BBX 8 12 0 -2
BITMAP
10
28
10
10
7c
92
92
7c
10
10
10
00
ENDCHAR
STARTCHAR 0046
ENCODING 70
SWIDTH 903 0
DWIDTH 8 0
BBX 8 12 0 -2
BITMAP
10
10
10
7c
92
92
7c
14
1a
14
10
00
ENDCHAR
STARTCHAR 0047
ENCODING 71
SWIDTH 903 0
DWIDTH 8 0
BBX 8 12 0 -2
BITMAP
10
11
11
7d
93
95
78
10
10
10
10
00
ENDCHAR
STARTCHAR 0048
ENCODING 72
SWIDTH 903 0
DWIDTH 8 0
BBX 8 12 0 -2
BITMAP
10
10
7c
92
92
7c
10
10
10
7c
44
00
ENDCHAR
STARTCHAR 0049
ENCODING 73
SWIDTH 903 0
DWIDTH 8 0
BBX 8 12 0 -2
BITMAP
10
10
10
7c
92
92
7c
10
18
14
78
00
ENDCHAR
STARTCHAR 004a
ENCODING 74
SWIDTH 903 0
DWIDTH 8 0
BBX 8 12 0 -2
BITMAP
10
10
10
78
95
93
7d
11
11
10
10
00
ENDCHAR
STARTCHAR 004b
ENCODING 75
SWIDTH 903 0
DWIDTH 8 0
BBX 8 12 0 -2
BITMAP
7c
10
10
7c
92
92
7c
10
10
10
10
00
ENDCHAR
STARTCHAR 004c
ENCODING 76
SWIDTH 903 0
DWIDTH 8 0
BBX 8 12 0 -2
BITMAP
7c
10
10
7c
92
92
7c
10
1e
10
10
00
ENDCHAR
STARTCHAR 004d
ENCODING 77
SWIDTH 903 0
DWIDTH 8 0
BBX 8 12 0 -2
BITMAP
7c
10
10
7c
92
92
7c
10
10
10
1e
00
ENDCHAR
STARTCHAR 004e
ENCODING 78
SWIDTH 903 0
DWIDTH 8 0
BBX 8 12 0 -2
BITMAP
fe
10
10
7c
92
92
7c
10
10
20
40
00
ENDCHAR
STARTCHAR 004f
ENCODING 79
SWIDTH 903 0
DWIDTH 8 0
BBX 8 12 0 -2
BITMAP
fe
10
10
7c
92
92
7c
10
1c
12
1c
00
ENDCHAR
STARTCHAR 0050
ENCODING 80
SWIDTH 903 0
DWIDTH 8 0
BBX 8 12 0 -2
BITMAP
f8
20
18
08
3e
49
49
3e
08
08
08
00
ENDCHAR
STARTCHAR 0051
ENCODING 81
SWIDTH 903 0
DWIDTH 8 0
BBX 8 12 0 -2
BITMAP
fe
10
28
10
7c
92
92
7c
10
10
10
00
ENDCHAR
STARTCHAR 0052
ENCODING 82
SWIDTH 903 0
DWIDTH 8 0
BBX 8 12 0 -2
BITMAP
7c
10
10
7c
92
92
7c
14
1a
14
10
00
ENDCHAR
STARTCHAR 0053
ENCODING 83
SWIDTH 903 0
DWIDTH 8 0
BBX 8 12 0 -2
BITMAP
7c
11
11
7d
93
95
78
10
10
10
10
00
ENDCHAR
STARTCHAR 0054
ENCODING 84
SWIDTH 903 0
DWIDTH 8 0
BBX 8 12 0 -2
BITMAP
7c
10
7c
92
92
7c
10
10
10
7c
44
00
ENDCHAR
STARTCHAR 0055
ENCODING 85
SWIDTH 903 0
DWIDTH 8 0
BBX 8 12 0 -2
BITMAP
7c
10
10
7c
92
92
7c
10
18
14
78
00
ENDCHAR
STARTCHAR 0056
ENCODING 86
SWIDTH 903 0
DWIDTH 8 0
BBX 8 12 0 -2
BITMAP
7c
10
10
78
95
93
7d
11
11
10
10
00
ENDCHAR
STARTCHAR 0057
ENCODING 87
SWIDTH 903 0
DWIDTH 8 0
BBX 8 12 0 -2
BITMAP
7c
82
82
82
82
82
82
82
82
82
82
00
ENDCHAR
STARTCHAR 0058
ENCODING 88
SWIDTH 903 0
DWIDTH 8 0
BBX 8 12 0 -2
BITMAP
78
84
84
84
84
84
87
84
84
84
84
00
ENDCHAR
STARTCHAR 0059
ENCODING 89
SWIDTH 903 0
DWIDTH 8 0
BBX 8 12 0 -2
BITMAP
78
84
84
84
84
84
84
84
84
84
87
00
ENDCHAR
STARTCHAR 005a
ENCODING 90
SWIDTH 903 0
DWIDTH 8 0
BBX 8 12 0 -2
BITMAP
7c
82
82
82
82
82
82
02
02
02
02
00
ENDCHAR
STARTCHAR 005b
ENCODING 91
SWIDTH 903 0
DWIDTH 8 0
BBX 8 12 0 -2
BITMAP
78
84
84
84
84
84
84
84
86
85
86
00
ENDCHAR
STARTCHAR 005c
ENCODING 92
SWIDTH 903 0
DWIDTH 8 0
BBX 8 12 0 -2
BITMAP
1e
21
21
21
21
e1
21
21
21
21
21
00
ENDCHAR
STARTCHAR 005d
ENCODING 93
SWIDTH 903 0
DWIDTH 8 0
BBX 8 12 0 -2
BITMAP
7c
82
82
82
82
82
82
80
80
80
80
00
ENDCHAR
STARTCHAR 0100
ENCODING 94
SWIDTH 903 0
DWIDTH 8 0
BBX 8 12 0 -2
BITMAP
78
84
84
84
84
84
84
04
04
1f
11
00
ENDCHAR
STARTCHAR 0101
ENCODING 95
SWIDTH 903 0
DWIDTH 8 0
BBX 8 12 0 -2
BITMAP
fe
00
00
7c
82
82
82
82
82
82
82
00
ENDCHAR
STARTCHAR 0102
ENCODING 96
SWIDTH 903 0
DWIDTH 8 0
BBX 8 12 0 -2
BITMAP
fc
00
00
78
84
84
84
87
84
84
84
00
ENDCHAR
STARTCHAR 0103
ENCODING 97
SWIDTH 903 0
DWIDTH 8 0
BBX 8 12 0 -2
BITMAP
fc
00
00
78
84
84
84
84
84
84
87
00
ENDCHAR
STARTCHAR 0104
ENCODING 98
SWIDTH 903 0
DWIDTH 8 0
BBX 8 12 0 -2
BITMAP
fe
00
00
7c
82
82
82
82
02
02
02
00
ENDCHAR
STARTCHAR 0105
ENCODING 99
SWIDTH 903 0
DWIDTH 8 0
BBX 8 12 0 -2
BITMAP
f8
00
00
70
88
88
88
88
8e
89
8e
00
ENDCHAR
STARTCHAR 0106
ENCODING 100
SWIDTH 903 0
DWIDTH 8 0
BBX 8 12 0 -2
BITMAP
3f
00
00
1e
21
21
e1
21
21
21
21
00
ENDCHAR
STARTCHAR 0107
ENCODING 101
SWIDTH 903 0
DWIDTH 8 0
BBX 8 12 0 -2
BITMAP
fe
00
00
7c
82
82
82
82
80
80
80
00
ENDCHAR
STARTCHAR 0108
ENCODING 102
SWIDTH 903 0
DWIDTH 8 0
BBX 8 12 0 -2
BITMAP
7c
00
38
44
44
44
04
04
04
3e
22
00
ENDCHAR
STARTCHAR 0109
ENCODING 103
SWIDTH 903 0
DWIDTH 8 0
BBX 8 12 0 -2
BITMAP
10
10
10
10
fe
10
10
10
10
10
10
00
ENDCHAR
STARTCHAR 010a
ENCODING 104
SWIDTH 903 0
DWIDTH 8 0
BBX 8 12 0 -2
BITMAP
10
10
10
fe
10
10
10
1e
10
10
10
00
ENDCHAR
STARTCHAR 010b
ENCODING 105
SWIDTH 903 0
DWIDTH 8 0
BBX 8 12 0 -2
BITMAP
10
10
10
fe
10
10
10
10
10
10
1e
00
ENDCHAR
STARTCHAR 010c
ENCODING 106
SWIDTH 903 0
DWIDTH 8 0
BBX 8 12 0 -2
BITMAP
10
10
10
fe
10
10
10
10
20
40
80
00
ENDCHAR
STARTCHAR 010d
ENCODING 107
SWIDTH 903 0
DWIDTH 8 0
BBX 8 12 0 -2
BITMAP
10
10
10
fe
10
10
10
10
1c
12
1c
00
ENDCHAR
STARTCHAR 010e
ENCODING 108
SWIDTH 903 0
DWIDTH 8 0
BBX 8 12 0 -2
BITMAP
40
40
30
10
10
fe
10
10
10
10
10
00
ENDCHAR
STARTCHAR 010f
ENCODING 109
SWIDTH 903 0
DWIDTH 8 0
BBX 8 12 0 -2
BITMAP
10
28
10
10
10
fe
10
10
10
10
10
00
ENDCHAR
STARTCHAR 0110
ENCODING 110
SWIDTH 903 0
DWIDTH 8 0
BBX 8 12 0 -2
BITMAP
10
10
10
fe
10
10
10
10
10
7c
44
00
ENDCHAR
STARTCHAR 0111
ENCODING 111
SWIDTH 903 0
DWIDTH 8 0
BBX 8 12 0 -2
BITMAP
fe
10
10
10
fe
10
10
10
10
10
10
00
ENDCHAR
STARTCHAR 0112
ENCODING 112
SWIDTH 903 0
DWIDTH 8 0
BBX 8 12 0 -2
BITMAP
fe
10
10
fe
10
10
10
1e
10
10
10
00
ENDCHAR
STARTCHAR 0113
ENCODING 113
SWIDTH 903 0
DWIDTH 8 0
BBX 8 12 0 -2
BITMAP
fe
10
10
fe
10
10
10
10
10
10
1e
00
ENDCHAR
STARTCHAR 0114
ENCODING 114
SWIDTH 903 0
DWIDTH 8 0
BBX 8 12 0 -2
BITMAP
fe
10
10
fe
10
10
10
10
20
40
80
00
ENDCHAR
STARTCHAR 0115
ENCODING 115
SWIDTH 903 0
DWIDTH 8 0
BBX 8 12 0 -2
BITMAP
fe
10
10
10
fe
10
10
10
1c
12
1c
00
ENDCHAR
STARTCHAR 0116
ENCODING 116
SWIDTH 903 0
DWIDTH 8 0
BBX 8 12 0 -2
BITMAP
fe
10
08
7f
08
08
08
08
08
08
08
00
ENDCHAR
STARTCHAR 0117
ENCODING 117
SWIDTH 903 0
DWIDTH 8 0
BBX 8 12 0 -2
BITMAP
fe
10
28
28
10
fe
10
10
10
10
10
00
ENDCHAR
STARTCHAR 0118
ENCODING 118
SWIDTH 903 0
DWIDTH 8 0
BBX 8 12 0 -2
BITMAP
fe
10
10
fe
10
10
10
10
10
7c
44
00
ENDCHAR
STARTCHAR 0119
ENCODING 119
SWIDTH 903 0
DWIDTH 8 0
BBX 8 12 0 -2
BITMAP
10
f0
10
0c
04
04
04
04
04
04
04
00
ENDCHAR
STARTCHAR 011a
ENCODING 120
SWIDTH 903 0
DWIDTH 8 0
BBX 8 12 0 -2
BITMAP
10
f0
10
0c
04
04
07
04
04
04
04
00
ENDCHAR
STARTCHAR 011b
ENCODING 121
SWIDTH 903 0
DWIDTH 8 0
BBX 8 12 0 -2
BITMAP
10
f0
10
0c
04
04
04
04
04
04
07
00
ENDCHAR
STARTCHAR 011c
ENCODING 122
SWIDTH 903 0
DWIDTH 8 0
BBX 8 12 0 -2
BITMAP
10
f0
10
0c
04
04
04
04
04
08
f0
00
ENDCHAR
STARTCHAR 011d
ENCODING 123
SWIDTH 903 0
DWIDTH 8 0
BBX 8 12 0 -2
BITMAP
10
f0
10
0c
04
04
04
04
06
05
06
00
ENDCHAR
STARTCHAR 011e
ENCODING 124
SWIDTH 903 0
DWIDTH 8 0
BBX 8 12 0 -2
BITMAP
10
70
90
8c
04
04
04
04
04
04
04
00
ENDCHAR
STARTCHAR 011f
ENCODING 125
SWIDTH 903 0
DWIDTH 8 0
BBX 8 12 0 -2
BITMAP
00
0e
15
73
90
8c
04
04
04
04
04
00
ENDCHAR
STARTCHAR 0120
ENCODING 126
SWIDTH 903 0
DWIDTH 8 0
BBX 8 12 0 -2
BITMAP
20
e0
22
1d
0a
08
08
08
08
08
08
00
ENDCHAR
STARTCHAR 0121
ENCODING 127
SWIDTH 903 0
DWIDTH 8 0
BBX 8 12 0 -2
BITMAP
20
e0
20
18
0a
0a
0c
0a
0a
08
08
00
ENDCHAR
STARTCHAR 0122
ENCODING 128
SWIDTH 903 0
DWIDTH 8 0
BBX 8 12 0 -2
BITMAP
10
f0
90
18
08
08
08
08
08
3e
22
00
ENDCHAR
STARTCHAR 0123
ENCODING 129
SWIDTH 903 0
DWIDTH 8 0
BBX 8 12 0 -2
BITMAP
10
f0
10
0c
04
04
04
06
05
3e
40
00
ENDCHAR
STARTCHAR 0124
ENCODING 130
SWIDTH 903 0
DWIDTH 8 0
BBX 8 12 0 -2
BITMAP
20
e2
22
1c
0a
0a
08
08
08
08
08
00
ENDCHAR
STARTCHAR 0125
ENCODING 131
SWIDTH 903 0
DWIDTH 8 0
BBX 8 12 0 -2
BITMAP
40
40
40
78
08
08
08
08
08
08
08
00
ENDCHAR
STARTCHAR 0126
ENCODING 132
SWIDTH 903 0
DWIDTH 8 0
BBX 8 12 0 -2
BITMAP
40
40
40
78
08
08
0f
08
08
08
08
00
ENDCHAR
STARTCHAR 0127
ENCODING 133
SWIDTH 903 0
DWIDTH 8 0
BBX 8 12 0 -2
BITMAP
40
40
40
78
08
08
08
08
08
08
0f
00
ENDCHAR
STARTCHAR 0128
ENCODING 134
SWIDTH 903 0
DWIDTH 8 0
BBX 8 12 0 -2
BITMAP
78
84
84
80
70
10
10
10
10
10
10
00
ENDCHAR
STARTCHAR 0129
ENCODING 135
SWIDTH 903 0
DWIDTH 8 0
BBX 8 12 0 -2
BITMAP
40
40
40
78
08
08
08
08
0e
09
0e
00
ENDCHAR
STARTCHAR 012a
ENCODING 136
SWIDTH 903 0
DWIDTH 8 0
BBX 8 12 0 -2
BITMAP
00
f0
10
10
18
08
08
08
08
08
08
00
ENDCHAR
STARTCHAR 012b
ENCODING 137
SWIDTH 903 0
DWIDTH 8 0
BBX 8 12 0 -2
BITMAP
78
94
8c
80
70
10
10
10
10
10
10
00
ENDCHAR
STARTCHAR 012c
ENCODING 138
SWIDTH 903 0
DWIDTH 8 0
BBX 8 12 0 -2
BITMAP
78
84
84
80
70
10
10
10
10
7c
44
00
ENDCHAR
STARTCHAR 012d
ENCODING 139
SWIDTH 903 0
DWIDTH 8 0
BBX 8 12 0 -2
BITMAP
82
fe
10
10
10
1c
04
04
04
04
04
00
ENDCHAR
STARTCHAR 012e
ENCODING 140
SWIDTH 903 0
DWIDTH 8 0
BBX 8 12 0 -2
BITMAP
88
f8
20
20
38
08
0f
08
08
08
08
00
ENDCHAR
STARTCHAR 012f
ENCODING 141
SWIDTH 903 0
DWIDTH 8 0
BBX 8 12 0 -2
BITMAP
88
f8
20
20
38
08
08
08
08
08
0f
00
ENDCHAR
STARTCHAR 0130
ENCODING 142
SWIDTH 903 0
DWIDTH 8 0
BBX 8 12 0 -2
BITMAP
fc
30
78
84
84
80
70
10
10
10
10
00
ENDCHAR
STARTCHAR 0131
ENCODING 143
SWIDTH 903 0
DWIDTH 8 0
BBX 8 12 0 -2
BITMAP
88
f8
20
20
38
08
08
08
0e
09
0e
00
ENDCHAR
STARTCHAR 0132
ENCODING 144
SWIDTH 903 0
DWIDTH 8 0
BBX 8 12 0 -2
BITMAP
fc
30
78
48
08
0c
04
04
04
04
04
00
ENDCHAR
STARTCHAR 0133
ENCODING 145
SWIDTH 903 0
DWIDTH 8 0
BBX 8 12 0 -2
BITMAP
fc
30
78
94
8c
80
70
10
10
10
10
00
ENDCHAR
STARTCHAR 0134
ENCODING 146
SWIDTH 903 0
DWIDTH 8 0
BBX 8 12 0 -2
BITMAP
fc
30
78
84
84
80
70
10
10
7c
44
00
ENDCHAR
STARTCHAR 0135
ENCODING 147
SWIDTH 903 0
DWIDTH 8 0
BBX 8 12 0 -2
BITMAP
80
80
60
20
50
88
84
84
84
84
84
00
ENDCHAR
STARTCHAR 0136
ENCODING 148
SWIDTH 903 0
DWIDTH 8 0
BBX 8 12 0 -2
BITMAP
80
80
60
20
50
88
87
84
84
84
84
00
ENDCHAR
STARTCHAR 0137
ENCODING 149
SWIDTH 903 0
DWIDTH 8 0
BBX 8 12 0 -2
BITMAP
80
80
60
20
50
88
84
84
84
84
87
00
ENDCHAR
STARTCHAR 0138
ENCODING 150
SWIDTH 903 0
DWIDTH 8 0
BBX 8 12 0 -2
BITMAP
80
80
60
20
50
88
84
84
04
04
04
00
ENDCHAR
STARTCHAR 0139
ENCODING 151
SWIDTH 903 0
DWIDTH 8 0
BBX 8 12 0 -2
BITMAP
80
80
60
20
50
88
84
84
86
85
86
00
ENDCHAR
STARTCHAR 013a
ENCODING 152
SWIDTH 903 0
DWIDTH 8 0
BBX 8 12 0 -2
BITMAP
e0
f0
38
10
30
48
44
42
42
42
42
00
ENDCHAR
STARTCHAR 013b
ENCODING 153
SWIDTH 903 0
DWIDTH 8 0
BBX 8 12 0 -2
BITMAP
80
80
60
20
50
88
84
84
80
80
80
00
ENDCHAR
STARTCHAR 013c
ENCODING 154
SWIDTH 903 0
DWIDTH 8 0
BBX 8 12 0 -2
BITMAP
88
f8
20
20
18
08
14
22
21
21
21
00
ENDCHAR
STARTCHAR 013d
ENCODING 155
SWIDTH 903 0
DWIDTH 8 0
BBX 8 12 0 -2
BITMAP
80
80
bc
42
42
42
42
42
42
42
42
00
ENDCHAR
STARTCHAR 013e
ENCODING 156
SWIDTH 903 0
DWIDTH 8 0
BBX 8 12 0 -2
BITMAP
80
80
b8
44
44
44
47
44
44
44
44
00
ENDCHAR
STARTCHAR 013f
ENCODING 157
SWIDTH 903 0
DWIDTH 8 0
BBX 8 12 0 -2
BITMAP
80
80
b8
44
44
44
44
44
44
44
47
00
ENDCHAR
STARTCHAR 0140
ENCODING 158
SWIDTH 903 0
DWIDTH 8 0
BBX 8 12 0 -2
BITMAP
80
80
bc
42
42
42
42
42
02
02
02
00
ENDCHAR
STARTCHAR 0141
ENCODING 159
SWIDTH 903 0
DWIDTH 8 0
BBX 8 12 0 -2
BITMAP
80
80
b8
44
44
44
44
44
46
45
46
00
ENDCHAR
STARTCHAR 0142
ENCODING 160
SWIDTH 903 0
DWIDTH 8 0
BBX 8 12 0 -2
BITMAP
80
80
bc
42
42
42
62
22
22
22
22
00
ENDCHAR
STARTCHAR 0143
ENCODING 161
SWIDTH 903 0
DWIDTH 8 0
BBX 8 12 0 -2
BITMAP
80
80
bc
42
42
42
42
42
40
40
40
00
ENDCHAR
STARTCHAR 0144
ENCODING 162
SWIDTH 903 0
DWIDTH 8 0
BBX 8 12 0 -2
BITMAP
80
82
bd
46
44
44
44
44
44
44
44
00
ENDCHAR
STARTCHAR 0145
ENCODING 163
SWIDTH 903 0
DWIDTH 8 0
BBX 8 12 0 -2
BITMAP
80
80
bc
44
44
45
45
46
45
45
44
00
ENDCHAR
STARTCHAR 0146
ENCODING 164
SWIDTH 903 0
DWIDTH 8 0
BBX 8 12 0 -2
BITMAP
80
80
b8
44
44
44
44
04
04
1f
11
00
ENDCHAR
STARTCHAR 0147
ENCODING 165
SWIDTH 903 0
DWIDTH 8 0
BBX 8 12 0 -2
BITMAP
80
80
b8
44
44
44
04
06
05
06
18
00
ENDCHAR
STARTCHAR 0148
ENCODING 166
SWIDTH 903 0
DWIDTH 8 0
BBX 8 12 0 -2
BITMAP
80
81
bd
46
45
45
44
44
44
44
44
00
ENDCHAR
STARTCHAR 0149
ENCODING 167
SWIDTH 903 0
DWIDTH 8 0
BBX 8 12 0 -2
BITMAP
30
e0
9e
21
21
21
21
21
21
21
21
00
ENDCHAR
STARTCHAR 014a
ENCODING 168
SWIDTH 903 0
DWIDTH 8 0
BBX 8 12 0 -2
BITMAP
30
e0
98
24
24
24
27
24
24
24
24
00
ENDCHAR
STARTCHAR 014b
ENCODING 169
SWIDTH 903 0
DWIDTH 8 0
BBX 8 12 0 -2
BITMAP
30
e0
98
24
24
24
24
24
24
24
27
00
ENDCHAR
STARTCHAR 014c
ENCODING 170
SWIDTH 903 0
DWIDTH 8 0
BBX 8 12 0 -2
BITMAP
30
e0
9c
22
22
22
22
02
02
02
02
00
ENDCHAR
STARTCHAR 014d
ENCODING 171
SWIDTH 903 0
DWIDTH 8 0
BBX 8 12 0 -2
BITMAP
30
e0
98
24
24
24
24
24
26
25
26
00
ENDCHAR
STARTCHAR 014e
ENCODING 172
SWIDTH 903 0
DWIDTH 8 0
BBX 8 12 0 -2
BITMAP
30
e0
9e
21
21
21
11
11
11
11
11
00
ENDCHAR
STARTCHAR 014f
ENCODING 173
SWIDTH 903 0
DWIDTH 8 0
BBX 8 12 0 -2
BITMAP
30
e0
9e
21
21
21
21
21
20
20
20
00
ENDCHAR
STARTCHAR 0150
ENCODING 174
SWIDTH 903 0
DWIDTH 8 0
BBX 8 12 0 -2
BITMAP
30
e0
9a
25
26
24
24
24
24
24
24
00
ENDCHAR
STARTCHAR 0151
ENCODING 175
SWIDTH 903 0
DWIDTH 8 0
BBX 8 12 0 -2
BITMAP
30
e0
98
24
25
25
26
25
25
24
24
00
ENDCHAR
STARTCHAR 0152
ENCODING 176
SWIDTH 903 0
DWIDTH 8 0
BBX 8 12 0 -2
BITMAP
e0
40
40
5c
22
22
22
02
02
1f
11
00
ENDCHAR
STARTCHAR 0153
ENCODING 177
SWIDTH 903 0
DWIDTH 8 0
BBX 8 12 0 -2
BITMAP
e0
40
40
5c
22
22
22
06
0d
12
20
00
ENDCHAR
STARTCHAR 0154
ENCODING 178
SWIDTH 903 0
DWIDTH 8 0
BBX 8 12 0 -2
BITMAP
30
e2
9a
26
25
25
24
24
24
24
24
00
ENDCHAR
STARTCHAR 0155
ENCODING 179
SWIDTH 903 0
DWIDTH 8 0
BBX 8 12 0 -2
BITMAP
7c
92
92
92
92
92
92
92
92
92
7c
00
ENDCHAR
STARTCHAR 0156
ENCODING 180
SWIDTH 903 0
DWIDTH 8 0
BBX 8 12 0 -2
BITMAP
70
a8
a8
a8
a8
a8
a8
a8
af
a8
70
00
ENDCHAR
STARTCHAR 0157
ENCODING 181
SWIDTH 903 0
DWIDTH 8 0
BBX 8 12 0 -2
BITMAP
7c
92
92
92
7c
10
10
10
10
10
1e
00
ENDCHAR
STARTCHAR 0158
ENCODING 182
SWIDTH 903 0
DWIDTH 8 0
BBX 8 12 0 -2
BITMAP
7c
92
92
92
7c
10
10
10
10
10
10
00
ENDCHAR
STARTCHAR 0159
ENCODING 183
SWIDTH 903 0
DWIDTH 8 0
BBX 8 12 0 -2
BITMAP
7c
92
92
92
7c
10
10
10
1c
12
1c
00
ENDCHAR
STARTCHAR 015a
ENCODING 184
SWIDTH 903 0
DWIDTH 8 0
BBX 8 12 0 -2
BITMAP
70
a8
af
a8
a8
a8
a8
a8
a8
a8
70
00
ENDCHAR
STARTCHAR 015b
ENCODING 185
SWIDTH 903 0
DWIDTH 8 0
BBX 8 12 0 -2
BITMAP
7c
92
92
92
7c
10
20
40
80
80
80
00
ENDCHAR
STARTCHAR 015c
ENCODING 186
SWIDTH 903 0
DWIDTH 8 0
BBX 8 12 0 -2
BITMAP
78
84
84
84
84
84
84
84
84
84
78
00
ENDCHAR
STARTCHAR 015d
ENCODING 187
SWIDTH 903 0
DWIDTH 8 0
BBX 8 12 0 -2
BITMAP
78
84
84
84
84
87
84
84
84
84
78
00
ENDCHAR
STARTCHAR 0200
ENCODING 188
SWIDTH 903 0
DWIDTH 8 0
BBX 8 12 0 -2
BITMAP
70
88
88
88
7c
04
08
10
10
10
1e
00
ENDCHAR
STARTCHAR 0201
ENCODING 189
SWIDTH 903 0
DWIDTH 8 0
BBX 8 12 0 -2
BITMAP
70
88
88
88
7c
04
04
04
04
04
04
00
ENDCHAR
STARTCHAR 0202
ENCODING 190
SWIDTH 903 0
DWIDTH 8 0
BBX 8 12 0 -2
BITMAP
70
88
88
88
7c
04
04
04
06
05
06
00
ENDCHAR
STARTCHAR 0203
ENCODING 191
SWIDTH 903 0
DWIDTH 8 0
BBX 8 12 0 -2
BITMAP
30
30
78
84
84
84
84
84
84
84
78
00
ENDCHAR
STARTCHAR 0204
ENCODING 192
SWIDTH 903 0
DWIDTH 8 0
BBX 8 12 0 -2
BITMAP
70
88
88
88
88
70
40
80
80
80
80
00
ENDCHAR
STARTCHAR 0205
ENCODING 193
SWIDTH 903 0
DWIDTH 8 0
BBX 8 12 0 -2
BITMAP
84
84
84
84
fc
84
84
84
84
84
84
00
ENDCHAR
STARTCHAR 0206
ENCODING 194
SWIDTH 903 0
DWIDTH 8 0
BBX 8 12 0 -2
BITMAP
88
88
88
88
f8
88
8f
88
88
88
88
00
ENDCHAR
STARTCHAR 0207
ENCODING 195
SWIDTH 903 0
DWIDTH 8 0
BBX 8 12 0 -2
BITMAP
88
88
88
88
f8
88
88
88
88
88
8f
00
ENDCHAR
STARTCHAR 0208
ENCODING 196
SWIDTH 903 0
DWIDTH 8 0
BBX 8 12 0 -2
BITMAP
84
84
84
fc
84
84
84
04
04
04
04
00
ENDCHAR
STARTCHAR 0209
ENCODING 197
SWIDTH 903 0
DWIDTH 8 0
BBX 8 12 0 -2
BITMAP
88
88
88
f8
88
88
88
88
8e
89
8e
00
ENDCHAR
STARTCHAR 020a
ENCODING 198
SWIDTH 903 0
DWIDTH 8 0
BBX 8 12 0 -2
BITMAP
02
e2
22
3e
22
22
22
22
22
22
22
00
ENDCHAR
STARTCHAR 020b
ENCODING 199
SWIDTH 903 0
DWIDTH 8 0
BBX 8 12 0 -2
BITMAP
84
84
84
fc
84
84
84
80
80
80
80
00
ENDCHAR
STARTCHAR 020c
ENCODING 200
SWIDTH 903 0
DWIDTH 8 0
BBX 8 12 0 -2
BITMAP
84
84
84
fc
84
84
84
04
04
1f
11
00
ENDCHAR
STARTCHAR 020d
ENCODING 201
SWIDTH 903 0
DWIDTH 8 0
BBX 8 12 0 -2
BITMAP
c3
42
42
7e
42
42
42
42
42
42
42
00
ENDCHAR
STARTCHAR 020e
ENCODING 202
SWIDTH 903 0
DWIDTH 8 0
BBX 8 12 0 -2
BITMAP
c6
44
44
7c
44
47
44
44
44
44
44
00
ENDCHAR
STARTCHAR 020f
ENCODING 203
SWIDTH 903 0
DWIDTH 8 0
BBX 8 12 0 -2
BITMAP
c6
44
44
7c
44
44
44
44
44
44
47
00
ENDCHAR
STARTCHAR 0210
ENCODING 204
SWIDTH 903 0
DWIDTH 8 0
BBX 8 12 0 -2
BITMAP
c3
42
42
7e
42
42
42
02
02
02
02
00
ENDCHAR
STARTCHAR 0211
ENCODING 205
SWIDTH 903 0
DWIDTH 8 0
BBX 8 12 0 -2
BITMAP
c6
44
44
7c
44
44
44
44
46
45
46
00
ENDCHAR
STARTCHAR 0212
ENCODING 206
SWIDTH 903 0
DWIDTH 8 0
BBX 8 12 0 -2
BITMAP
43
e2
22
3e
22
22
22
22
22
22
22
00
ENDCHAR
STARTCHAR 0213
ENCODING 207
SWIDTH 903 0
DWIDTH 8 0
BBX 8 12 0 -2
BITMAP
c3
42
42
7e
42
42
42
40
40
40
40
00
ENDCHAR
STARTCHAR 0214
ENCODING 208
SWIDTH 903 0
DWIDTH 8 0
BBX 8 12 0 -2
BITMAP
c6
44
44
7c
44
44
44
04
04
1f
11
00
ENDCHAR
STARTCHAR 0215
ENCODING 209
SWIDTH 903 0
DWIDTH 8 0
BBX 8 12 0 -2
BITMAP
30
48
84
84
44
28
10
10
10
10
10
00
ENDCHAR
STARTCHAR 0216
ENCODING 210
SWIDTH 903 0
DWIDTH 8 0
BBX 8 12 0 -2
BITMAP
30
48
84
84
44
28
10
10
1e
10
10
00
ENDCHAR
STARTCHAR 0217
ENCODING 211
SWIDTH 903 0
DWIDTH 8 0
BBX 8 12 0 -2
BITMAP
30
48
88
88
50
20
24
3c
22
22
20
00
ENDCHAR
STARTCHAR 0218
ENCODING 212
SWIDTH 903 0
DWIDTH 8 0
BBX 8 12 0 -2
BITMAP
18
24
44
44
28
10
08
08
10
20
40
00
ENDCHAR
STARTCHAR 0219
ENCODING 213
SWIDTH 903 0
DWIDTH 8 0
BBX 8 12 0 -2
BITMAP
30
48
88
88
50
20
3c
2a
24
20
20
00
ENDCHAR
STARTCHAR 021a
ENCODING 214
SWIDTH 903 0
DWIDTH 8 0
BBX 8 12 0 -2
BITMAP
00
30
48
88
88
50
24
24
78
80
80
00
ENDCHAR
STARTCHAR 021b
ENCODING 215
SWIDTH 903 0
DWIDTH 8 0
BBX 8 12 0 -2
BITMAP
30
48
8f
88
50
20
20
20
20
20
20
00
ENDCHAR
STARTCHAR 021c
ENCODING 216
SWIDTH 903 0
DWIDTH 8 0
BBX 8 12 0 -2
BITMAP
fc
30
48
84
84
44
28
10
10
10
10
10
ENDCHAR
STARTCHAR 021d
ENCODING 217
SWIDTH 903 0
DWIDTH 8 0
BBX 8 12 0 -2
BITMAP
70
88
88
88
50
20
10
3c
42
42
42
00
ENDCHAR
STARTCHAR 021e
ENCODING 218
SWIDTH 903 0
DWIDTH 8 0
BBX 8 12 0 -2
BITMAP
60
90
90
a0
c0
40
7f
88
88
88
88
00
ENDCHAR
STARTCHAR 021f
ENCODING 219
SWIDTH 903 0
DWIDTH 8 0
BBX 8 12 0 -2
BITMAP
60
90
90
a0
c0
40
70
88
88
88
8f
00
ENDCHAR
STARTCHAR 0220
ENCODING 220
SWIDTH 903 0
DWIDTH 8 0
BBX 8 12 0 -2
BITMAP
70
88
88
88
50
20
10
7c
82
02
02
00
ENDCHAR
STARTCHAR 0221
ENCODING 221
SWIDTH 903 0
DWIDTH 8 0
BBX 8 12 0 -2
BITMAP
60
90
90
a0
c0
40
70
88
8e
89
8e
00
ENDCHAR
STARTCHAR 0222
ENCODING 222
SWIDTH 903 0
DWIDTH 8 0
BBX 8 12 0 -2
BITMAP
70
8f
88
88
50
20
10
3c
42
42
42
00
ENDCHAR
STARTCHAR 0223
ENCODING 223
SWIDTH 903 0
DWIDTH 8 0
BBX 8 12 0 -2
BITMAP
70
88
88
88
50
20
10
7c
82
80
80
00
ENDCHAR
STARTCHAR 0224
ENCODING 224
SWIDTH 903 0
DWIDTH 8 0
BBX 8 12 0 -2
BITMAP
70
88
88
88
50
20
10
78
84
1f
11
00
ENDCHAR
STARTCHAR 0225
ENCODING 225
SWIDTH 903 0
DWIDTH 8 0
BBX 8 12 0 -2
BITMAP
70
88
f8
88
50
20
10
3c
42
42
42
00
ENDCHAR
STARTCHAR 0226
ENCODING 226
SWIDTH 903 0
DWIDTH 8 0
BBX 8 12 0 -2
BITMAP
60
90
f0
a0
c0
40
7f
88
88
88
88
00
ENDCHAR
STARTCHAR 0227
ENCODING 227
SWIDTH 903 0
DWIDTH 8 0
BBX 8 12 0 -2
BITMAP
60
90
f0
a0
c0
40
70
88
88
88
8f
00
ENDCHAR
STARTCHAR 0228
ENCODING 228
SWIDTH 903 0
DWIDTH 8 0
BBX 8 12 0 -2
BITMAP
70
88
f8
88
50
20
10
7c
82
02
02
00
ENDCHAR
STARTCHAR 0229
ENCODING 229
SWIDTH 903 0
DWIDTH 8 0
BBX 8 12 0 -2
BITMAP
60
90
f0
a0
c0
40
70
88
8e
89
8e
00
ENDCHAR
STARTCHAR 022a
ENCODING 230
SWIDTH 903 0
DWIDTH 8 0
BBX 8 12 0 -2
BITMAP
70
8f
f8
88
50
20
10
3c
42
42
42
00
ENDCHAR
STARTCHAR 022b
ENCODING 231
SWIDTH 903 0
DWIDTH 8 0
BBX 8 12 0 -2
BITMAP
70
88
f8
88
50
20
10
7c
82
80
80
00
ENDCHAR
STARTCHAR 022c
ENCODING 232
SWIDTH 903 0
DWIDTH 8 0
BBX 8 12 0 -2
BITMAP
70
88
f8
88
50
20
10
78
84
1f
11
00
ENDCHAR
STARTCHAR 022d
ENCODING 233
SWIDTH 903 0
DWIDTH 8 0
BBX 8 12 0 -2
BITMAP
f8
20
70
88
88
50
20
10
3c
42
42
00
ENDCHAR
STARTCHAR 022e
ENCODING 234
SWIDTH 903 0
DWIDTH 8 0
BBX 8 12 0 -2
BITMAP
f8
20
60
90
90
a0
40
7f
84
84
84
00
ENDCHAR
STARTCHAR 022f
ENCODING 235
SWIDTH 903 0
DWIDTH 8 0
BBX 8 12 0 -2
BITMAP
f8
20
60
90
90
a0
40
78
84
84
87
00
ENDCHAR
STARTCHAR 0230
ENCODING 236
SWIDTH 903 0
DWIDTH 8 0
BBX 8 12 0 -2
BITMAP
f8
20
70
88
88
50
20
10
7c
82
02
02
ENDCHAR
STARTCHAR 0231
ENCODING 237
SWIDTH 903 0
DWIDTH 8 0
BBX 8 12 0 -2
BITMAP
f8
20
60
90
90
a0
40
78
86
85
86
00
ENDCHAR
STARTCHAR 0232
ENCODING 238
SWIDTH 903 0
DWIDTH 8 0
BBX 8 12 0 -2
BITMAP
f8
20
70
8f
88
50
20
10
3c
42
42
42
ENDCHAR
STARTCHAR 0233
ENCODING 239
SWIDTH 903 0
DWIDTH 8 0
BBX 8 12 0 -2
BITMAP
f8
20
70
88
88
50
20
10
7c
82
80
80
ENDCHAR
STARTCHAR 0234
ENCODING 240
SWIDTH 903 0
DWIDTH 8 0
BBX 8 12 0 -2
BITMAP
f8
20
70
88
88
50
20
10
78
84
1f
11
ENDCHAR
STARTCHAR 0235
ENCODING 241
SWIDTH 903 0
DWIDTH 8 0
BBX 8 12 0 -2
BITMAP
78
04
04
04
04
04
04
04
04
04
04
00
ENDCHAR
STARTCHAR 0236
ENCODING 242
SWIDTH 903 0
DWIDTH 8 0
BBX 8 12 0 -2
BITMAP
f0
08
08
08
08
0f
08
08
08
08
08
00
ENDCHAR
STARTCHAR 0237
ENCODING 243
SWIDTH 903 0
DWIDTH 8 0
BBX 8 12 0 -2
BITMAP
f0
08
08
08
08
08
08
08
08
08
0f
00
ENDCHAR
STARTCHAR 0238
ENCODING 244
SWIDTH 903 0
DWIDTH 8 0
BBX 8 12 0 -2
BITMAP
f8
04
04
04
04
04
04
04
04
04
f8
00
ENDCHAR
STARTCHAR 0239
ENCODING 245
SWIDTH 903 0
DWIDTH 8 0
BBX 8 12 0 -2
BITMAP
f0
08
08
08
08
08
08
08
0e
09
0e
00
ENDCHAR
STARTCHAR 023a
ENCODING 246
SWIDTH 903 0
DWIDTH 8 0
BBX 8 12 0 -2
BITMAP
f8
a4
44
04
04
04
04
04
04
04
04
00
ENDCHAR
STARTCHAR 023b
ENCODING 247
SWIDTH 903 0
DWIDTH 8 0
BBX 8 12 0 -2
BITMAP
20
20
f8
04
04
04
04
04
04
04
04
00
ENDCHAR
STARTCHAR 023c
ENCODING 248
SWIDTH 903 0
DWIDTH 8 0
BBX 8 12 0 -2
BITMAP
f0
08
08
08
0e
0d
0a
08
08
08
08
00
ENDCHAR
STARTCHAR 023d
ENCODING 249
SWIDTH 903 0
DWIDTH 8 0
BBX 8 12 0 -2
BITMAP
f0
08
08
08
0a
0a
0c
0a
0a
08
08
00
ENDCHAR
STARTCHAR 023e
ENCODING 250
SWIDTH 903 0
DWIDTH 8 0
BBX 8 12 0 -2
BITMAP
e0
90
10
38
24
04
04
04
04
04
04
00
ENDCHAR
STARTCHAR 023f
ENCODING 251
SWIDTH 903 0
DWIDTH 8 0
BBX 8 12 0 -2
BITMAP
f0
08
08
08
0c
0a
0c
10
20
40
40
00
ENDCHAR
STARTCHAR 0240
ENCODING 252
SWIDTH 903 0
DWIDTH 8 0
BBX 8 12 0 -2
BITMAP
f2
0a
0c
0a
0a
08
08
08
08
08
08
00
ENDCHAR
STARTCHAR Ge
ENCODING 253
SWIDTH 903 0
DWIDTH 8 0
BBX 8 12 0 -2
BITMAP
7c
00
78
04
04
04
04
04
04
04
04
00
ENDCHAR
STARTCHAR 0242
ENCODING 254
SWIDTH 903 0
DWIDTH 8 0
BBX 8 12 0 -2
BITMAP
f8
00
f0
08
08
0f
08
08
08
08
08
00
ENDCHAR
STARTCHAR 0243
ENCODING 255
SWIDTH 903 0
DWIDTH 8 0
BBX 8 12 0 -2
BITMAP
f8
00
f0
08
08
08
08
08
08
08
0f
00
ENDCHAR
STARTCHAR 0244
ENCODING 256
SWIDTH 903 0
DWIDTH 8 0
BBX 8 12 0 -2
BITMAP
f8
00
f8
04
04
04
04
04
04
04
f8
00
ENDCHAR
STARTCHAR 0245
ENCODING 257
SWIDTH 903 0
DWIDTH 8 0
BBX 8 12 0 -2
BITMAP
f8
00
f0
08
08
08
08
08
0e
09
0e
00
ENDCHAR
STARTCHAR 0246
ENCODING 258
SWIDTH 903 0
DWIDTH 8 0
BBX 8 12 0 -2
BITMAP
f8
00
f8
a4
44
04
04
04
04
04
04
00
ENDCHAR
STARTCHAR 0247
ENCODING 259
SWIDTH 903 0
DWIDTH 8 0
BBX 8 12 0 -2
BITMAP
f8
20
20
f8
04
04
04
04
04
04
04
00
ENDCHAR
STARTCHAR 0248
ENCODING 260
SWIDTH 903 0
DWIDTH 8 0
BBX 8 12 0 -2
BITMAP
7c
92
92
92
92
92
92
92
92
92
92
00
ENDCHAR
STARTCHAR 0249
ENCODING 261
SWIDTH 903 0
DWIDTH 8 0
BBX 8 12 0 -2
BITMAP
70
a8
a8
a8
a8
af
a8
a8
a8
a8
a8
00
ENDCHAR
STARTCHAR 024a
ENCODING 262
SWIDTH 903 0
DWIDTH 8 0
BBX 8 12 0 -2
BITMAP
70
a8
a8
a8
a8
a8
a8
a8
a8
a8
af
00
ENDCHAR
STARTCHAR 024b
ENCODING 263
SWIDTH 903 0
DWIDTH 8 0
BBX 8 12 0 -2
BITMAP
7c
92
92
92
92
92
02
02
02
02
02
00
ENDCHAR
STARTCHAR 024c
ENCODING 264
SWIDTH 903 0
DWIDTH 8 0
BBX 8 12 0 -2
BITMAP
70
a8
a8
a8
a8
a8
a8
a8
ae
a9
ae
00
ENDCHAR
STARTCHAR 024d
ENCODING 265
SWIDTH 903 0
DWIDTH 8 0
BBX 8 12 0 -2
BITMAP
7c
92
92
92
92
08
08
08
08
08
08
00
ENDCHAR
STARTCHAR 024e
ENCODING 266
SWIDTH 903 0
DWIDTH 8 0
BBX 8 12 0 -2
BITMAP
7c
92
92
92
92
92
80
80
80
80
80
00
ENDCHAR
STARTCHAR 024f
ENCODING 267
SWIDTH 903 0
DWIDTH 8 0
BBX 8 12 0 -2
BITMAP
70
a8
a8
a8
a8
a8
a8
08
08
3e
22
00
ENDCHAR
STARTCHAR 0250
ENCODING 268
SWIDTH 903 0
DWIDTH 8 0
BBX 8 12 0 -2
BITMAP
7c
92
92
92
92
92
92
92
92
db
db
00
ENDCHAR
STARTCHAR 0251
ENCODING 269
SWIDTH 903 0
DWIDTH 8 0
BBX 8 12 0 -2
BITMAP
7c
92
92
92
92
92
92
92
92
db
db
00
ENDCHAR
STARTCHAR 0252
ENCODING 270
SWIDTH 903 0
DWIDTH 8 0
BBX 8 12 0 -2
BITMAP
7c
92
92
92
93
93
92
92
92
da
da
00
ENDCHAR
STARTCHAR 0253
ENCODING 271
SWIDTH 903 0
DWIDTH 8 0
BBX 8 12 0 -2
BITMAP
7c
92
92
92
92
da
da
02
02
03
03
00
ENDCHAR
STARTCHAR 0254
ENCODING 272
SWIDTH 903 0
DWIDTH 8 0
BBX 8 12 0 -2
BITMAP
7c
92
92
92
92
92
92
92
92
dd
da
00
ENDCHAR
STARTCHAR 0255
ENCODING 273
SWIDTH 903 0
DWIDTH 8 0
BBX 8 12 0 -2
BITMAP
7c
92
92
92
d3
d3
08
08
08
0c
0c
00
ENDCHAR
STARTCHAR 0256
ENCODING 274
SWIDTH 903 0
DWIDTH 8 0
BBX 8 12 0 -2
BITMAP
7c
92
92
92
9b
9b
80
80
80
c0
c0
00
ENDCHAR
STARTCHAR 0257
ENCODING 275
SWIDTH 903 0
DWIDTH 8 0
BBX 8 12 0 -2
BITMAP
7c
92
92
92
92
da
da
02
02
1f
11
00
ENDCHAR
STARTCHAR 0258
ENCODING 276
SWIDTH 903 0
DWIDTH 8 0
BBX 8 12 0 -2
BITMAP
10
10
38
44
44
28
10
28
44
44
44
00
ENDCHAR
STARTCHAR 0259
ENCODING 277
SWIDTH 903 0
DWIDTH 8 0
BBX 8 12 0 -2
BITMAP
10
10
38
44
44
44
28
10
2f
44
44
00
ENDCHAR
STARTCHAR 025a
ENCODING 278
SWIDTH 903 0
DWIDTH 8 0
BBX 8 12 0 -2
BITMAP
20
20
70
88
88
88
50
20
50
88
8f
00
ENDCHAR
STARTCHAR 025b
ENCODING 279
SWIDTH 903 0
DWIDTH 8 0
BBX 8 12 0 -2
BITMAP
10
10
38
44
44
38
10
28
44
44
04
04
ENDCHAR
STARTCHAR 025c
ENCODING 280
SWIDTH 903 0
DWIDTH 8 0
BBX 8 12 0 -2
BITMAP
10
10
38
44
44
44
28
10
2a
45
46
00
ENDCHAR
STARTCHAR 025d
ENCODING 281
SWIDTH 903 0
DWIDTH 8 0
BBX 8 12 0 -2
BITMAP
20
20
70
8f
88
88
50
20
50
88
88
88
ENDCHAR
STARTCHAR 0300
ENCODING 282
SWIDTH 903 0
DWIDTH 8 0
BBX 8 12 0 -2
BITMAP
10
10
38
44
44
44
28
10
28
44
40
40
ENDCHAR
STARTCHAR 0301
ENCODING 283
SWIDTH 903 0
DWIDTH 8 0
BBX 8 12 0 -2
BITMAP
10
10
38
44
44
28
30
48
44
04
1f
11
ENDCHAR
STARTCHAR 0302
ENCODING 284
SWIDTH 903 0
DWIDTH 8 0
BBX 8 12 0 -2
BITMAP
38
44
44
44
28
10
28
44
44
44
44
00
ENDCHAR
STARTCHAR 0303
ENCODING 285
SWIDTH 903 0
DWIDTH 8 0
BBX 8 12 0 -2
BITMAP
38
44
44
44
28
10
28
47
44
44
44
00
ENDCHAR
STARTCHAR 0304
ENCODING 286
SWIDTH 903 0
DWIDTH 8 0
BBX 8 12 0 -2
BITMAP
38
44
44
44
28
10
28
44
44
44
47
00
ENDCHAR
STARTCHAR 0305
ENCODING 287
SWIDTH 903 0
DWIDTH 8 0
BBX 8 12 0 -2
BITMAP
38
44
44
44
28
10
28
44
04
04
04
00
ENDCHAR
STARTCHAR 0306
ENCODING 288
SWIDTH 903 0
DWIDTH 8 0
BBX 8 12 0 -2
BITMAP
38
44
44
44
28
10
28
44
46
45
46
00
ENDCHAR
STARTCHAR 0307
ENCODING 289
SWIDTH 903 0
DWIDTH 8 0
BBX 8 12 0 -2
BITMAP
70
8f
88
88
50
20
50
88
88
88
88
00
ENDCHAR
STARTCHAR 0308
ENCODING 290
SWIDTH 903 0
DWIDTH 8 0
BBX 8 12 0 -2
BITMAP
38
44
44
44
28
10
28
44
44
40
40
00
ENDCHAR
STARTCHAR 0309
ENCODING 291
SWIDTH 903 0
DWIDTH 8 0
BBX 8 12 0 -2
BITMAP
38
44
44
44
28
30
48
44
04
1f
11
00
ENDCHAR
STARTCHAR 030a
ENCODING 292
SWIDTH 903 0
DWIDTH 8 0
BBX 8 12 0 -2
BITMAP
78
84
84
84
fc
84
84
84
84
84
78
00
ENDCHAR
STARTCHAR 030b
ENCODING 293
SWIDTH 903 0
DWIDTH 8 0
BBX 8 12 0 -2
BITMAP
78
84
84
84
fc
84
87
84
84
84
78
00
ENDCHAR
STARTCHAR 030c
ENCODING 294
SWIDTH 903 0
DWIDTH 8 0
BBX 8 12 0 -2
BITMAP
70
88
f8
88
7c
04
08
10
10
10
1e
00
ENDCHAR
STARTCHAR 030d
ENCODING 295
SWIDTH 903 0
DWIDTH 8 0
BBX 8 12 0 -2
BITMAP
70
88
f8
88
7c
04
04
04
04
04
04
00
ENDCHAR
STARTCHAR 030e
ENCODING 296
SWIDTH 903 0
DWIDTH 8 0
BBX 8 12 0 -2
BITMAP
70
88
f8
88
7c
04
04
04
06
05
06
00
ENDCHAR
STARTCHAR 030f
ENCODING 297
SWIDTH 903 0
DWIDTH 8 0
BBX 8 12 0 -2
BITMAP
30
30
78
84
84
fc
84
84
84
84
78
00
ENDCHAR
STARTCHAR 0310
ENCODING 298
SWIDTH 903 0
DWIDTH 8 0
BBX 8 12 0 -2
BITMAP
70
88
f8
88
88
70
40
80
80
80
80
00
ENDCHAR
STARTCHAR 0311
ENCODING 299
SWIDTH 903 0
DWIDTH 8 0
BBX 8 12 0 -2
BITMAP
20
20
20
20
20
40
80
f0
88
88
7f
00
ENDCHAR
STARTCHAR 0312
ENCODING 300
SWIDTH 903 0
DWIDTH 8 0
BBX 8 12 0 -2
BITMAP
40
40
40
40
80
f0
88
88
7f
08
10
20
ENDCHAR
STARTCHAR 0313
ENCODING 301
SWIDTH 903 0
DWIDTH 8 0
BBX 8 12 0 -2
BITMAP
20
20
20
20
20
40
80
e4
92
92
7c
00
ENDCHAR
STARTCHAR 0314
ENCODING 302
SWIDTH 903 0
DWIDTH 8 0
BBX 8 12 0 -2
BITMAP
40
40
40
40
80
f0
88
88
7f
08
08
00
ENDCHAR
STARTCHAR 0315
ENCODING 303
SWIDTH 903 0
DWIDTH 8 0
BBX 8 12 0 -2
BITMAP
40
40
40
40
80
e0
90
90
7e
05
02
00
ENDCHAR
STARTCHAR 0316
ENCODING 304
SWIDTH 903 0
DWIDTH 8 0
BBX 8 12 0 -2
BITMAP
7c
80
80
80
80
80
f0
88
7f
08
08
00
ENDCHAR
STARTCHAR 0317
ENCODING 305
SWIDTH 903 0
DWIDTH 8 0
BBX 8 12 0 -2
BITMAP
7c
94
88
80
80
80
f0
88
7f
08
08
00
ENDCHAR
STARTCHAR 0318
ENCODING 306
SWIDTH 903 0
DWIDTH 8 0
BBX 8 12 0 -2
BITMAP
40
40
40
80
f0
88
88
7f
08
3e
22
00
ENDCHAR
STARTCHAR 0319
ENCODING 307
SWIDTH 903 0
DWIDTH 8 0
BBX 8 12 0 -2
BITMAP
fe
92
10
10
10
10
10
10
10
10
10
00
ENDCHAR
STARTCHAR 031a
ENCODING 308
SWIDTH 903 0
DWIDTH 8 0
BBX 8 12 0 -2
BITMAP
fe
92
10
10
10
10
1e
10
10
10
10
00
ENDCHAR
STARTCHAR 031b
ENCODING 309
SWIDTH 903 0
DWIDTH 8 0
BBX 8 12 0 -2
BITMAP
fe
92
10
10
10
10
10
10
10
10
1e
00
ENDCHAR
STARTCHAR 031c
ENCODING 310
SWIDTH 903 0
DWIDTH 8 0
BBX 8 12 0 -2
BITMAP
fe
92
10
10
10
10
10
10
10
10
e0
00
ENDCHAR
STARTCHAR 031d
ENCODING 311
SWIDTH 903 0
DWIDTH 8 0
BBX 8 12 0 -2
BITMAP
fe
92
10
10
10
10
10
10
1c
12
1c
00
ENDCHAR
STARTCHAR 031e
ENCODING 312
SWIDTH 903 0
DWIDTH 8 0
BBX 8 12 0 -2
BITMAP
fe
92
10
18
08
08
08
08
08
08
08
00
ENDCHAR
STARTCHAR 031f
ENCODING 313
SWIDTH 903 0
DWIDTH 8 0
BBX 8 12 0 -2
BITMAP
fe
92
10
10
20
20
40
40
80
80
80
00
ENDCHAR
STARTCHAR 0320
ENCODING 314
SWIDTH 903 0
DWIDTH 8 0
BBX 8 12 0 -2
BITMAP
fe
92
10
10
10
10
10
10
10
7c
44
00
ENDCHAR
STARTCHAR mYa
ENCODING 315
SWIDTH 903 0
DWIDTH 8 0
BBX 8 12 0 -2
BITMAP
7c
10
7e
a5
a5
a5
43
01
01
01
01
01
ENDCHAR
STARTCHAR 0322
ENCODING 316
SWIDTH 903 0
DWIDTH 8 0
BBX 8 12 0 -2
BITMAP
88
f8
20
20
40
40
80
88
84
84
78
00
ENDCHAR
STARTCHAR 0323
ENCODING 317
SWIDTH 903 0
DWIDTH 8 0
BBX 8 12 0 -2
BITMAP
88
f8
20
20
20
40
80
e4
92
92
7c
00
ENDCHAR
STARTCHAR 0324
ENCODING 318
SWIDTH 903 0
DWIDTH 8 0
BBX 8 12 0 -2
BITMAP
00
00
00
00
00
00
00
00
00
00
00
00
ENDCHAR
STARTCHAR 0325
ENCODING 319
SWIDTH 903 0
DWIDTH 8 0
BBX 8 12 0 -2
BITMAP
00
00
00
00
18
18
00
18
18
00
00
00
ENDCHAR
STARTCHAR 0326
ENCODING 320
SWIDTH 903 0
DWIDTH 8 0
BBX 8 12 0 -2
BITMAP
00
00
00
00
6c
6c
00
6c
6c
00
00
00
ENDCHAR
STARTCHAR 0327
ENCODING 321
SWIDTH 903 0
DWIDTH 8 0
BBX 8 12 0 -2
BITMAP
00
00
7e
00
18
00
18
00
00
00
00
00
ENDCHAR
STARTCHAR 0328
ENCODING 322
SWIDTH 903 0
DWIDTH 8 0
BBX 8 12 0 -2
BITMAP
00
00
7e
00
18
00
18
00
7e
00
00
00
ENDCHAR
STARTCHAR 0329
ENCODING 323
SWIDTH 903 0
DWIDTH 8 0
BBX 8 12 0 -2
BITMAP
00
00
18
18
00
7e
00
18
18
00
00
00
ENDCHAR
STARTCHAR 032a
ENCODING 324
SWIDTH 903 0
DWIDTH 8 0
BBX 8 12 0 -2
BITMAP
00
00
18
18
00
0f
00
18
18
00
00
00
ENDCHAR
STARTCHAR 032b
ENCODING 325
SWIDTH 903 0
DWIDTH 8 0
BBX 8 12 0 -2
BITMAP
00
18
18
00
18
18
00
18
18
00
00
00
ENDCHAR
STARTCHAR 032c
ENCODING 326
SWIDTH 903 0
DWIDTH 8 0
BBX 8 12 0 -2
BITMAP
18
18
c3
db
18
db
c3
18
18
00
00
00
ENDCHAR
STARTCHAR NUMBER-1
ENCODING 327
SWIDTH 903 0
DWIDTH 8 0
BBX 8 12 0 -2
BITMAP
7c
00
00
30
30
70
6c
6c
6c
38
00
7c
ENDCHAR
STARTCHAR 032e
ENCODING 328
SWIDTH 903 0
DWIDTH 8 0
BBX 8 12 0 -2
BITMAP
3e
00
3c
66
6e
7c
60
78
6c
38
00
3e
ENDCHAR
STARTCHAR 032f
ENCODING 329
SWIDTH 903 0
DWIDTH 8 0
BBX 8 12 0 -2
BITMAP
7c
00
7c
64
60
60
60
60
60
60
00
7c
ENDCHAR
STARTCHAR 0330
ENCODING 330
SWIDTH 903 0
DWIDTH 8 0
BBX 8 12 0 -2
BITMAP
7c
00
38
6c
6c
6c
6c
6c
6c
38
00
7c
ENDCHAR
STARTCHAR 0331
ENCODING 331
SWIDTH 903 0
DWIDTH 8 0
BBX 8 12 0 -2
BITMAP
7e
00
18
18
18
3e
62
60
60
3e
00
7e
ENDCHAR
STARTCHAR 0332
ENCODING 332
SWIDTH 903 0
DWIDTH 8 0
BBX 8 12 0 -2
BITMAP
fe
00
f8
98
18
18
18
18
18
1e
00
fe
ENDCHAR
STARTCHAR 0333
ENCODING 333
SWIDTH 903 0
DWIDTH 8 0
BBX 8 12 0 -2
BITMAP
fe
00
f8
98
18
18
18
1c
1a
1c
00
fe
ENDCHAR
STARTCHAR 0334
ENCODING 334
SWIDTH 903 0
DWIDTH 8 0
BBX 8 12 0 -2
BITMAP
7e
00
7e
18
18
18
18
18
18
7e
00
7e
ENDCHAR
STARTCHAR 0335
ENCODING 335
SWIDTH 903 0
DWIDTH 8 0
BBX 8 12 0 -2
BITMAP
7e
00
66
66
7e
66
66
66
66
3c
00
7e
ENDCHAR
STARTCHAR 0336
ENCODING 336
SWIDTH 903 0
DWIDTH 8 0
BBX 8 12 0 -2
BITMAP
7e
00
18
18
18
18
18
18
18
18
00
7e
ENDCHAR
STARTCHAR 0337
ENCODING 337
SWIDTH 903 0
DWIDTH 8 0
BBX 8 12 0 -2
BITMAP
7e
00
7e
18
18
30
6c
66
66
66
00
7e
ENDCHAR
STARTCHAR 0338
ENCODING 338
SWIDTH 903 0
DWIDTH 8 0
BBX 8 12 0 -2
BITMAP
ff
00
00
4e
db
db
db
db
db
72
00
ff
ENDCHAR
STARTCHAR 0339
ENCODING 339
SWIDTH 903 0
DWIDTH 8 0
BBX 8 12 0 -2
BITMAP
ff
00
db
db
df
db
73
03
03
03
00
ff
ENDCHAR
STARTCHAR 033a
ENCODING 340
SWIDTH 903 0
DWIDTH 8 0
BBX 8 12 0 -2
BITMAP
ff
00
66
66
66
66
3e
06
06
06
00
ff
ENDCHAR
STARTCHAR 033b
ENCODING 341
SWIDTH 903 0
DWIDTH 8 0
BBX 8 12 0 -2
BITMAP
ff
00
7e
18
18
0c
0c
0c
0c
3f
00
ff
ENDCHAR
STARTCHAR 033c
ENCODING 342
SWIDTH 903 0
DWIDTH 8 0
BBX 8 12 0 -2
BITMAP
ff
00
3e
65
62
60
60
60
60
3e
00
ff
ENDCHAR
STARTCHAR 033d
ENCODING 343
SWIDTH 903 0
DWIDTH 8 0
BBX 8 12 0 -2
BITMAP
ff
00
ff
24
24
24
24
24
24
24
00
ff
ENDCHAR
STARTCHAR 033e
ENCODING 344
SWIDTH 903 0
DWIDTH 8 0
BBX 8 12 0 -2
BITMAP
ff
00
78
0c
0c
1c
06
06
06
06
00
ff
ENDCHAR
STARTCHAR 033f
ENCODING 345
SWIDTH 903 0
DWIDTH 8 0
BBX 8 12 0 -2
BITMAP
ff
00
3c
66
66
2c
30
30
30
30
00
ff
ENDCHAR
STARTCHAR 0340
ENCODING 346
SWIDTH 903 0
DWIDTH 8 0
BBX 8 12 0 -2
BITMAP
ff
00
66
99
99
aa
cc
cc
cc
cc
00
ff
ENDCHAR
STARTCHAR 0341
ENCODING 347
SWIDTH 903 0
DWIDTH 8 0
BBX 8 12 0 -2
BITMAP
00
00
18
99
42
24
db
db
24
42
99
18
ENDCHAR
STARTCHAR 0342
ENCODING 348
SWIDTH 903 0
DWIDTH 8 0
BBX 8 12 0 -2
BITMAP
00
18
18
00
18
18
18
3c
3c
3c
18
00
ENDCHAR
STARTCHAR 0343
ENCODING 349
SWIDTH 903 0
DWIDTH 8 0
BBX 8 12 0 -2
BITMAP
00
00
00
00
00
00
00
00
18
18
00
00
ENDCHAR
STARTCHAR 0344
ENCODING 350
SWIDTH 903 0
DWIDTH 8 0
BBX 8 12 0 -2
BITMAP
00
00
00
1b
36
6c
d8
6c
36
1b
00
00
ENDCHAR
STARTCHAR 0345
ENCODING 351
SWIDTH 903 0
DWIDTH 8 0
BBX 8 12 0 -2
BITMAP
00
00
00
d8
6c
36
1b
36
6c
d8
00
00
ENDCHAR
STARTCHAR 0346
ENCODING 352
SWIDTH 903 0
DWIDTH 8 0
BBX 8 12 0 -2
BITMAP
00
3e
63
63
06
0c
18
18
00
18
18
00
ENDCHAR
ENDFONT
